# xmcd
#
# Track frame offsets: 
#        150
#        21021
#        44591
#        82881
#        107200
#        127277
#        148171
#        168842
#        184094
#        205942
#
# Disc length: 3039 seconds
#
# Revision: 2
# Processed by: cddbd v1.5.1PL0 Copyright (c) Steve Scherf et al.
# Submitted via: ExactAudioCopy v0.90b4
#
DISCID=8d0bdd0a
DTITLE=Various Artist - Enredos De Escolas de Sambas - Salgueiro
DYEAR=1993
DGENRE=Samba
TTITLE0=Zezé Mota - Chica Da Silva
TTITLE1=Vaguinho - Skindô Skindô
TTITLE2=Touro - Me Masso Se Não Passo Pela Rua Do Ouvidor - Peguei Um 
TTITLE2=Ita No Norte
TTITLE3=Zequinha Do Salgueiro - Chico Rei
TTITLE4=Sombrinha - História Da Liberdade No Brasil
TTITLE5=Conjunto Nosso Samba - História Do Carnaval Carioca
TTITLE6=Quinho - Bahia De Todos Os Deuses
TTITLE7=Quinho - Festa Para Um Rei Negro
TTITLE8=Zé Di - Rei De França Na Ilha Da Assombração
TTITLE9=Rico Medeiros - Quilombo Dos Palmares
EXTD=By SeccoXiru\n
EXTT0=
EXTT1=
EXTT2=
EXTT3=
EXTT4=
EXTT5=
EXTT6=
EXTT7=
EXTT8=
EXTT9=
PLAYORDER=
